<svg width="256" height="256" viewBox="0 0 256 256" fill="none" xmlns="http://www.w3.org/2000/svg">
<path fill-rule="evenodd" clip-rule="evenodd" d="M0 128C0 92.6538 28.6538 64 64 64H192C227.346 64 256 92.6538 256 128C256 163.346 227.346 192 192 192H64C28.6538 192 0 163.346 0 128ZM119.297 98.6172C119.297 94.4103 122.707 91 126.914 91C131.121 91 134.531 94.4103 134.531 98.6172V120.297H157.383C161.59 120.297 165 123.707 165 127.914C165 132.121 161.59 135.531 157.383 135.531H134.531V158.383C134.531 162.59 131.121 166 126.914 166C122.707 166 119.297 162.59 119.297 158.383V135.531H97.6172C93.4103 135.531 90 132.121 90 127.914C90 123.707 93.4103 120.297 97.6172 120.297H119.297V98.6172Z" fill="white"/>
</svg>
