<svg width="256" height="256" viewBox="0 0 256 256" fill="none" xmlns="http://www.w3.org/2000/svg">
<path d="M44 100H212M81.3333 44V62.6667M174.667 44V62.6667M72 128H90.6667M118.667 128H137.333M165.333 128H184M72 156H90.6667M118.667 156H137.333M165.333 156H184M72 184H90.6667M118.667 184H137.333M165.333 184H184M73.8667 212H182.133C192.588 212 197.815 212 201.808 209.965C205.32 208.176 208.176 205.32 209.965 201.808C212 197.815 212 192.588 212 182.133V92.5333C212 82.079 212 76.8518 209.965 72.8589C208.176 69.3464 205.32 66.4908 201.808 64.7012C197.815 62.6667 192.588 62.6667 182.133 62.6667H73.8667C63.4124 62.6667 58.1852 62.6667 54.1922 64.7012C50.6798 66.4908 47.8241 69.3464 46.0346 72.8589C44 76.8518 44 82.079 44 92.5333V182.133C44 192.588 44 197.815 46.0346 201.808C47.8241 205.32 50.6798 208.176 54.1922 209.965C58.1852 212 63.4123 212 73.8667 212Z" stroke="white" stroke-width="20" stroke-linecap="round"/>
</svg>
