<svg width="256" height="256" viewBox="0 0 256 256" fill="none" xmlns="http://www.w3.org/2000/svg">
<g clip-path="url(#clip0_15_6)">
<path d="M245.582 8.6653L245.272 8.38304C239.354 2.97736 231.683 0 223.672 0C214.69 0 206.067 3.80203 200.012 10.4303L85.5228 135.773C84.4792 136.915 83.6877 138.263 83.1984 139.73L69.7361 180.088C68.1796 184.754 68.9608 189.914 71.8254 193.891C74.7129 197.899 79.3646 200.292 84.2699 200.292C86.3917 200.292 88.4662 199.855 90.4332 198.995L129.412 181.943C130.829 181.323 132.1 180.413 133.143 179.27L247.633 53.9286C259.547 40.8864 258.628 20.5829 245.582 8.6653ZM95.5294 172.633L103.429 148.951L104.095 148.222L119.067 161.897L118.401 162.627L95.5294 172.633ZM231.309 39.0174L133.979 145.574L119.006 131.899L216.337 25.3415C218.24 23.2573 220.845 22.1091 223.672 22.1091C226.152 22.1091 228.528 23.0318 230.366 24.7106L230.674 24.9929C234.716 28.6844 235 34.9759 231.309 39.0174Z" fill="white"/>
<path d="M223.371 101.988C217.266 101.988 212.316 106.938 212.316 113.043V206.894C212.316 222.395 199.704 235.007 184.203 235.007H50.2223C34.7202 235.007 22.1091 222.395 22.1091 206.894V74.0016C22.1091 58.5002 34.7209 45.8884 50.2223 45.8884H147.198C153.303 45.8884 158.253 40.9389 158.253 34.8339C158.253 28.7288 153.303 23.7793 147.198 23.7793H50.2223C22.5292 23.7793 0 46.3092 0 74.0016V206.893C0 234.585 22.5299 257.115 50.2223 257.115H184.202C211.895 257.115 234.424 234.585 234.424 206.893V113.043C234.425 106.938 229.476 101.988 223.371 101.988Z" fill="white"/>
</g>
<defs>
<clipPath id="clip0_15_6">
<rect width="256" height="256" fill="white"/>
</clipPath>
</defs>
</svg>
