<?xml version="1.0" encoding="UTF-8"?>
<svg id="Calque_1" xmlns="http://www.w3.org/2000/svg" version="1.1" viewBox="0 0 800 800">
  <!-- Generator: Adobe Illustrator 29.1.0, SVG Export Plug-In . SVG Version: 2.1.0 Build 142)  -->
  <defs>
    <style>
      .st0 {
        fill: #fff;
        stroke: #fff;
        stroke-miterlimit: 10;
        stroke-width: 16px;
      }
    </style>
  </defs>
  <path class="st0" d="M735,668h-468.8c-18.5,0-33.5-15-33.5-33.5v-33.5c0-6.1,3.4-11.8,8.7-14.7l163.9-89.4c-54.9-59.4-55.5-143.4-55.5-147.3v-100.4c.1-.9.2-1.9.3-2.8,11.5-68.4,87.1-114.4,150.4-114.4h0c63.3,0,138.8,45.9,150.4,114.4.2.9.2,1.9.2,2.8v100.4c0,3.9-.6,87.9-55.4,147.2l163.9,89.4c5.4,2.9,8.7,8.6,8.7,14.7v33.5c0,18.5-15,33.5-33.5,33.5ZM559.6,515.2c-4.9-2.7-8.2-7.6-8.7-13.2-.5-5.6,1.8-11,6.1-14.5,60.2-48.8,60.9-137,60.9-137.9v-98.9c-9.5-50.2-69.1-85.2-117.3-85.2-48.2,0-107.8,34.9-117.2,85.2v98.9c-.1.9.8,89.3,60.7,137.9,4.3,3.5,6.6,9,6.1,14.5-.5,5.6-3.8,10.5-8.7,13.2l-175.5,95.7v23.5h468.8v-23.6s-175.4-95.7-175.4-95.7ZM343.8,174.2c-14.8-5.7-30.1-8.8-44.4-8.8-48.2,0-107.8,34.9-117.2,85.2v98.9c-.1.9.8,89.3,60.7,137.9,4.3,3.5,6.6,9,6.1,14.5-.5,5.6-3.8,10.5-8.7,13.2l-175.5,95.7v23.5h117.2c9.2,0,16.7,7.5,16.7,16.7s-7.5,16.7-16.7,16.7h-117.2c-18.5,0-33.5-15-33.5-33.5v-33.5c0-6.1,3.4-11.8,8.7-14.7l163.9-89.4c-54.9-59.4-55.5-143.4-55.5-147.2v-100.4c.1-.9.2-1.9.3-2.8,11.5-68.4,87.1-114.4,150.4-114.4h.3c18.3,0,37.7,3.8,56.3,11,8.6,3.3,12.9,13,9.6,21.7-3.4,8.6-13.1,12.9-21.7,9.6Z"/>
</svg>