<svg width="256" height="256" viewBox="0 0 256 256" fill="none" xmlns="http://www.w3.org/2000/svg">
<path fill-rule="evenodd" clip-rule="evenodd" d="M42.667 43.3335C48.1898 43.3335 52.667 47.8106 52.667 53.3335V202.667C52.667 203.035 52.9654 203.333 53.3337 203.333H202.667C208.19 203.333 212.667 207.811 212.667 213.333C212.667 218.856 208.19 223.333 202.667 223.333H53.3337C41.92 223.333 32.667 214.081 32.667 202.667V53.3335C32.667 47.8106 37.1441 43.3335 42.667 43.3335Z" fill="white"/>
<path fill-rule="evenodd" clip-rule="evenodd" d="M199.071 88.929C202.977 92.8343 202.977 99.1659 199.071 103.071L145.738 156.403C143.863 158.279 141.319 159.332 138.667 159.332C136.015 159.332 133.471 158.279 131.596 156.403L112 136.807L81.7381 167.069C77.8328 170.974 71.5012 170.974 67.5959 167.069C63.6907 163.164 63.6907 156.832 67.5959 152.927L104.929 115.593C106.805 113.718 109.348 112.665 112 112.665C114.653 112.665 117.196 113.718 119.072 115.594L138.667 135.19L184.929 88.9289C188.835 85.0237 195.166 85.0237 199.071 88.929Z" fill="white"/>
</svg>
