<svg width="512" height="512" viewBox="0 0 512 512" fill="none" xmlns="http://www.w3.org/2000/svg">
<path d="M348.728 396.587C376.812 396.587 399.579 373.298 399.579 344.569C399.579 315.841 361.158 281.348 300.325 318.561C299.507 314.727 373.965 287.35 341.947 240.534C309.93 193.718 265.105 257.34 284.316 204.522C316.333 142.101 239.491 256.139 191.465 146.903C162.396 178.113 229.379 209.324 162.396 240.534C95.4123 271.745 130.632 300.555 175.456 318.561C124.482 318.561 111.421 342.756 111.421 361.909C111.421 381.061 128.372 396.587 162.396 396.587H348.728ZM341.784 190.616C354.255 196.57 364.944 206.104 373.663 218.853C386.324 237.365 390.724 255.227 388.733 271.859C418.098 283.851 438 310.042 438 344.569C438 394.319 398.231 435 348.728 435H162.396C111.261 435 73 406.721 73 361.909C73 340.152 80.9425 321.307 95.5852 307.211C94.259 304.987 93.0578 302.69 91.9847 300.315C74.2008 260.962 98.4691 227.941 146.166 205.717C149.284 204.264 151.674 202.989 153.423 201.96C153.116 201.062 152.753 200.02 152.325 198.81C147.521 185.23 145.674 178.476 145.324 167.698C144.764 150.459 150.747 134.253 163.347 120.725L203.141 78L226.638 131.445C233.112 146.171 239.279 154.02 244.293 157.107C247.439 159.044 251.455 158.78 260.182 155.155C262.062 154.375 269.011 151.233 270.293 150.688C273.423 149.359 276.104 148.372 279.272 147.557C287.776 145.369 296.07 145.023 306.224 149.375C322.256 156.245 330.06 170.867 330.307 185.571C334.068 187.284 337.874 188.749 341.784 190.616Z" fill="black"/>
</svg>
