<svg width="256" height="256" viewBox="0 0 256 256" fill="none" xmlns="http://www.w3.org/2000/svg">
<path d="M236 108.182C235.984 121.317 230.783 133.91 221.538 143.198C212.292 152.487 199.757 157.712 186.681 157.727H146.97C153.498 166.253 157.054 176.699 157.09 187.455V227.091C157.09 229.719 156.051 232.239 154.201 234.098C152.351 235.956 149.842 237 147.226 237C144.61 237 142.101 235.956 140.252 234.098C138.402 232.239 137.363 229.719 137.363 227.091V187.455C137.363 179.57 134.245 172.009 128.696 166.434C123.146 160.859 115.619 157.727 107.771 157.727H68.3165C65.7004 157.727 63.1916 156.683 61.3417 154.825C59.4919 152.967 58.4527 150.446 58.4527 147.818C58.4527 145.19 59.4919 142.67 61.3417 140.811C63.1916 138.953 65.7004 137.909 68.3165 137.909H186.681C194.529 137.909 202.056 134.777 207.605 129.202C213.155 123.627 216.273 116.066 216.273 108.182C216.273 100.298 213.155 92.7364 207.605 87.1615C202.056 81.5865 194.529 78.4545 186.681 78.4545H78.1802C75.5642 78.4545 73.0553 77.4106 71.2055 75.5522C69.3557 73.6939 68.3165 71.1735 68.3165 68.5455C68.3165 65.9174 69.3557 63.397 71.2055 61.5387C73.0553 59.6804 75.5642 58.6364 78.1802 58.6364H147.226C149.842 58.6364 152.351 57.5924 154.201 55.7341C156.051 53.8757 157.09 51.3553 157.09 48.7273C157.09 46.0992 156.051 43.5788 154.201 41.7205C152.351 39.8622 149.842 38.8182 147.226 38.8182H78.1802C74.0438 38.8167 69.9531 39.6865 66.1719 41.3714C62.3908 43.0562 59.0033 45.5187 56.228 48.6C53.4527 51.6812 51.3512 55.3128 50.0592 59.2603C48.7672 63.2078 48.3134 67.3836 48.7271 71.5182C49.7387 79.0441 53.474 85.9321 59.2197 90.8671C64.9654 95.8021 72.3191 98.4385 79.8768 98.2727H186.681C189.297 98.2727 191.806 99.3167 193.656 101.175C195.506 103.033 196.545 105.554 196.545 108.182C196.545 110.81 195.506 113.33 193.656 115.189C191.806 117.047 189.297 118.091 186.681 118.091H68.3165C64.1801 118.089 60.0893 118.959 56.3082 120.644C52.5271 122.329 49.1395 124.791 46.3642 127.873C43.5889 130.954 41.4875 134.586 40.1955 138.533C38.9035 142.481 38.4497 146.656 38.8633 150.791C39.875 158.317 43.6102 165.205 49.3559 170.14C55.1017 175.075 62.4554 177.711 70.013 177.545H88.0439C95.892 177.545 103.419 180.677 108.968 186.252C114.518 191.827 117.635 199.389 117.635 207.273V227.091C117.635 229.719 116.596 232.239 114.746 234.098C112.896 235.956 110.387 237 107.771 237C105.155 237 102.647 235.956 100.797 234.098C98.9469 232.239 97.9077 229.719 97.9077 227.091V207.273C97.9077 204.645 96.8685 202.124 95.0187 200.266C93.1688 198.408 90.66 197.364 88.0439 197.364H70.013C57.5532 197.494 45.483 193.004 36.1125 184.754C26.7419 176.503 20.729 165.07 19.2246 152.644C18.5695 145.756 19.3512 138.807 21.5201 132.24C23.6889 125.673 27.1971 119.632 31.8206 114.504C35.6016 110.436 40.0446 107.045 44.9591 104.476C35.9919 96.4594 30.3312 85.3652 29.0884 73.3712C28.418 66.4901 29.1887 59.5442 31.3509 52.9803C33.513 46.4163 37.0188 40.3797 41.6427 35.2585C46.2665 30.1374 51.9062 26.0452 58.1988 23.2451C64.4915 20.445 71.2979 18.9989 78.1802 19H147.226C155.074 19 162.601 22.132 168.151 27.7069C173.7 33.2819 176.818 40.8431 176.818 48.7273C176.785 52.1106 176.171 55.4629 175.003 58.6364H186.681C199.757 58.6521 212.292 63.8771 221.538 73.1653C230.783 82.4534 235.984 95.0464 236 108.182Z" fill="white"/>
</svg>
