<svg width="256" height="256" viewBox="0 0 256 256" fill="none" xmlns="http://www.w3.org/2000/svg">
<path fill-rule="evenodd" clip-rule="evenodd" d="M127.5 14C76.6644 14 36 56.296 36 107.787C36 134.054 47.5983 157.047 63.3015 178.019C76.408 195.524 93.1851 212.631 109.874 229.647L109.874 229.647C113.028 232.863 116.178 236.074 119.299 239.285C121.453 241.5 124.411 242.75 127.5 242.75C130.589 242.75 133.547 241.5 135.701 239.285C138.822 236.075 141.972 232.863 145.126 229.647C161.815 212.631 178.592 195.524 191.698 178.019C207.402 157.047 219 134.054 219 107.787C219 56.296 178.336 14 127.5 14ZM58.875 107.787C58.875 68.3177 89.9011 36.875 127.5 36.875C165.099 36.875 196.125 68.3177 196.125 107.787C196.125 127.001 187.708 145.183 173.387 164.309C161.279 180.481 145.782 196.292 129.073 213.34L127.5 214.945L125.927 213.34C109.218 196.292 93.7211 180.481 81.6126 164.309C67.2923 145.183 58.875 127.001 58.875 107.787ZM127.502 71.1872C108.551 71.1872 93.1897 86.5496 93.1897 105.5C93.1897 124.45 108.552 139.812 127.502 139.812C146.453 139.812 161.815 124.45 161.815 105.5C161.815 86.5496 146.453 71.1872 127.502 71.1872ZM116.065 105.5C116.065 99.1828 121.185 94.0622 127.502 94.0622C133.819 94.0622 138.94 99.1828 138.94 105.5C138.94 111.817 133.819 116.937 127.502 116.937C121.185 116.937 116.065 111.817 116.065 105.5Z" fill="white"/>
</svg>
