<svg width="256" height="256" viewBox="0 0 256 256" fill="none" xmlns="http://www.w3.org/2000/svg">
<path d="M187.257 217.575C205.108 217.575 219.579 202.766 219.579 184.499C219.579 166.232 195.158 144.3 156.491 167.962C155.972 165.524 203.298 148.116 182.947 118.348C162.596 88.58 134.105 129.034 146.316 95.4496C166.667 55.7588 117.825 128.271 87.2982 58.812C68.8213 78.6573 111.397 98.5027 68.8213 118.348C26.2456 138.193 48.6316 156.512 77.1228 167.962C44.7226 167.962 36.4211 183.346 36.4211 195.525C36.4211 207.703 47.195 217.575 68.8213 217.575H187.257ZM182.843 86.6071C190.77 90.3931 197.565 96.4555 203.106 104.562C211.154 116.333 213.95 127.69 212.685 138.266C231.35 145.891 244 162.545 244 184.499C244 216.133 218.722 242 187.257 242H68.8213C36.3194 242 12 224.018 12 195.525C12 181.69 17.0484 169.708 26.3555 160.745C25.5125 159.33 24.7491 157.87 24.067 156.36C12.7633 131.337 28.1886 110.34 58.5053 96.2092C60.4873 95.2853 62.0063 94.4751 63.1181 93.8204C62.9228 93.2493 62.692 92.5867 62.42 91.8176C59.3666 83.1828 58.1928 78.8882 57.9704 72.035C57.6146 61.0737 61.4172 50.7687 69.4261 42.1667L94.7196 15L109.655 48.9833C113.77 58.3467 117.69 63.3375 120.877 65.3005C122.877 66.5323 125.429 66.3641 130.976 64.0597C132.171 63.5632 136.588 61.5654 137.403 61.2192C139.392 60.374 141.097 59.7464 143.11 59.2281C148.515 57.8369 153.787 57.6169 160.241 60.384C170.431 64.7527 175.392 74.0496 175.549 83.3997C177.939 84.4884 180.358 85.4203 182.843 86.6071Z" fill="white"/>
</svg>
