<svg width="256" height="256" viewBox="0 0 256 256" fill="none" xmlns="http://www.w3.org/2000/svg">
<path d="M123.707 3.11996C125.058 -1.04 130.942 -1.03998 132.293 3.11998L159.415 86.6226C160.019 88.483 161.752 89.7425 163.708 89.7425H251.478C255.85 89.7425 257.668 95.3397 254.131 97.9107L183.124 149.518C181.542 150.668 180.88 152.706 181.484 154.566L208.606 238.069C209.957 242.229 205.198 245.688 201.66 243.117L130.653 191.51C129.071 190.36 126.929 190.36 125.347 191.51L54.3397 243.117C50.8023 245.688 46.0426 242.229 47.3938 238.069L74.5162 154.566C75.1204 152.706 74.4585 150.668 72.8765 149.518L1.86927 97.9107C-1.66819 95.3397 0.149832 89.7425 4.52237 89.7425H92.2921C94.2475 89.7425 95.9806 88.483 96.5849 86.6226L123.707 3.11996Z" fill="#FBFBFB"/>
</svg>
