<svg width="256" height="256" viewBox="0 0 256 256" fill="none" xmlns="http://www.w3.org/2000/svg">
<path fill-rule="evenodd" clip-rule="evenodd" d="M96.5849 86.6226C95.9806 88.483 94.2475 89.7425 92.2921 89.7425H4.52237C0.149832 89.7425 -1.66819 95.3397 1.86927 97.9107L72.8765 149.518C74.4585 150.668 75.1204 152.706 74.5162 154.566L47.3938 238.069C46.0426 242.229 50.8023 245.688 54.3397 243.117L125.347 191.51C126.929 190.36 129.071 190.36 130.653 191.51L201.66 243.117C205.198 245.688 209.957 242.229 208.606 238.069L181.484 154.566C180.88 152.706 181.542 150.668 183.124 149.518L254.131 97.9107C257.668 95.3397 255.85 89.7425 251.478 89.7425H163.708C161.752 89.7425 160.019 88.483 159.415 86.6226L132.293 3.11998C130.942 -1.03998 125.058 -1.04 123.707 3.11996L96.5849 86.6226ZM128 48.3503L113.756 92.2037C110.735 101.506 102.069 107.804 92.2921 107.804H46.1977L83.4888 134.906C91.3989 140.655 94.7087 150.846 91.6873 160.148L77.4434 204.001L114.735 176.898C122.645 171.149 133.355 171.149 141.265 176.898L178.557 204.001L164.313 160.148C161.291 150.846 164.601 140.655 172.511 134.906L209.802 107.804H163.708C153.931 107.804 145.265 101.506 142.244 92.2037L128 48.3503Z" fill="white"/>
</svg>
